FFmpeg version SVN-r25716, Copyright (c) 2000-2010 the FFmpeg developers  built on Nov 10 2010 12:23:18 with gcc 4.1.2 20080704 (Red Hat 4.1.2-48)  configuration: --enable-libmp3lame --enable-shared --disable-mmx --arch=x86_64  libavutil     50.33. 0 / 50.33. 0  libavcore      0.12. 1 /  0.12. 1  libavcodec    52.94. 4 / 52.94. 4  libavformat   52.84. 0 / 52.84. 0  libavdevice   52. 2. 2 / 52. 2. 2  libavfilter    1.59. 0 /  1.59. 0  libswscale     0.12. 0 /  0.12. 0Seems stream 0 codec frame rate differs from container frame rate: 600.00 (600/1) -> 6.00 (6/1)Input #0, mov,mp4,m4a,3gp,3g2,mj2, from '/RAID10/data/converted_video_files/35165.mov':  Metadata:    major_brand     : qt      minor_version   : 537199360    compatible_brands: qt      comment         : Created by HamamatsuWed, 01 Jun 2011 11:32:53 Eastern Daylight Time[ CALIBRATION ]	;MEASUREMENT CALIBRATION calib_index = 2	;Current Calibration Index title = 40x10um	;Current Calibration Title units = Pixels	;Current Calibration Units factor = 0.160000	;Current Calibration Scale Factor scale_len = 10.000000	;Current Calibration Scale Length symbol = µm	;Current Calibration Symbol[ ROI ]	;MEASUREMENT REGION OF INTEREST roi.type = 5	;FULL_FRAME roi.x1 = 0	;Left   limit roi.x2 = 1279	;Right  limit roi.y1 = 0	;Top    limit roi.y2 = 1023	;Bottom limit roi.w = 1280	;Width roi.h = 1024	;Height roi.area = 1310720.000000	;Area roi.capture = FALSE	;Capture ROI only roi.name = C:\Users\Sluder Lab\Documents\SIMPLE.ROI	;Disk file name[ CAPTURE ]	;CAPTURE IMAGE FROM DISK OR CAMERA c_Focus24BitMode = TRUE	;Focus 24 Bit Mode c_EnableCustom = TRUE	;Auto Exposure Enable Custom c_Capture1OnOk = TRUE	;Capture an Image On Okay Exit c_RuntimeMenu = TRUE    comment-eng     : Created by HamamatsuWed, 01 Jun 2011 11:32:53 Eastern Daylight Time[ CALIBRATION ]	;MEASUREMENT CALIBRATION calib_index = 2	;Current Calibration Index title = 40x10um	;Current Calibration Title units = Pixels	;Current Calibration Units factor = 0.160000	;Current Calibration Scale Factor scale_len = 10.000000	;Current Calibration Scale Length symbol = µm	;Current Calibration Symbol[ ROI ]	;MEASUREMENT REGION OF INTEREST roi.type = 5	;FULL_FRAME roi.x1 = 0	;Left   limit roi.x2 = 1279	;Right  limit roi.y1 = 0	;Top    limit roi.y2 = 1023	;Bottom limit roi.w = 1280	;Width roi.h = 1024	;Height roi.area = 1310720.000000	;Area roi.capture = FALSE	;Capture ROI only roi.name = C:\Users\Sluder Lab\Documents\SIMPLE.ROI	;Disk file name[ CAPTURE ]	;CAPTURE IMAGE FROM DISK OR CAMERA c_Focus24BitMode = TRUE	;Focus 24 Bit Mode c_EnableCustom = TRUE	;Auto Exposure Enable Custom c_Capture1OnOk = TRUE	;Capture an Image On Okay Exit c_RuntimeMenu = TRUE  Duration: 00:00:40.00, start: 0.000000, bitrate: 198313 kb/s    Stream #0.0(eng): Video: tiff, rgb24, 1344x1024, 198312 kb/s, 6 fps, 6 tbr, 600 tbn, 600 tbc[buffer @ 0x19d9350] w:1344 h:1024 pixfmt:rgb24[ffsink @ 0x1bf0000] auto-inserting filter 'auto-inserted scaler 0' between the filter 'src' and the filter 'out'[scale @ 0x1bf02f0] w:1344 h:1024 fmt:rgb24 -> w:1344 h:1024 fmt:yuv420p flags:0x4Output #0, flv, to '/RAID10/data/converted_video_files/35165.flv':  Metadata:    encoder         : Lavf52.84.0    Stream #0.0(eng): Video: flv, yuv420p, 1344x1024, q=2-31, 600 kb/s, 1k tbn, 24 tbcStream mapping:  Stream #0.0 -> #0.0Press [q] to stop encodingframe=    4 fps=  0 q=2.4 size=    1051kB time=0.54 bitrate=15888.1kbits/s    frame=    8 fps=  6 q=12.7 size=    1165kB time=1.21 bitrate=7897.8kbits/s    frame=   14 fps=  7 q=27.5 size=    1215kB time=2.21 bitrate=4508.3kbits/s    frame=   21 fps=  9 q=31.0 size=    1228kB time=3.38 bitrate=2981.9kbits/s    frame=   29 fps= 10 q=31.0 size=    1281kB time=4.71 bitrate=2228.2kbits/s    frame=   38 fps= 11 q=31.0 size=    1332kB time=6.21 bitrate=1757.2kbits/s    frame=   43 fps= 11 q=31.0 size=    1340kB time=7.04 bitrate=1558.9kbits/s    frame=   49 fps= 11 q=24.8 size=    1385kB time=8.04 bitrate=1411.1kbits/s    frame=   56 fps= 11 q=31.0 size=    1398kB time=9.21 bitrate=1243.9kbits/s    frame=   65 fps= 11 q=31.0 size=    1448kB time=10.71 bitrate=1108.0kbits/s    frame=   72 fps= 12 q=31.0 size=    1460kB time=11.88 bitrate=1007.3kbits/s    frame=   81 fps= 12 q=31.0 size=    1514kB time=13.38 bitrate= 927.1kbits/s    frame=   87 fps= 12 q=31.0 size=    1560kB time=14.38 bitrate= 889.2kbits/s    frame=   95 fps= 12 q=31.0 size=    1577kB time=15.71 bitrate= 822.2kbits/s    frame=  102 fps= 12 q=31.0 size=    1628kB time=16.88 bitrate= 790.1kbits/s    frame=  110 fps= 12 q=31.0 size=    1682kB time=18.21 bitrate= 756.9kbits/s    frame=  117 fps= 12 q=31.0 size=    1699kB time=19.38 bitrate= 718.2kbits/s    frame=  125 fps= 13 q=31.0 size=    1752kB time=20.71 bitrate= 692.9kbits/s    frame=  130 fps= 12 q=31.0 size=    1763kB time=21.54 bitrate= 670.4kbits/s    frame=  138 fps= 13 q=31.0 size=    1815kB time=22.88 bitrate= 650.1kbits/s    frame=  146 fps= 13 q=31.0 size=    1866kB time=24.21 bitrate= 631.4kbits/s    frame=  153 fps= 13 q=31.0 size=    1880kB time=25.38 bitrate= 606.8kbits/s    frame=  161 fps= 13 q=31.0 size=    1927kB time=26.71 bitrate= 591.1kbits/s    frame=  168 fps= 13 q=31.0 size=    1938kB time=27.88 bitrate= 569.6kbits/s    frame=  173 fps= 13 q=27.5 size=    1980kB time=28.71 bitrate= 565.1kbits/s    frame=  180 fps= 13 q=13.5 size=    1998kB time=29.88 bitrate= 547.8kbits/s    frame=  187 fps= 13 q=11.5 size=    2053kB time=31.04 bitrate= 541.9kbits/s    frame=  195 fps= 13 q=11.4 size=    2117kB time=32.38 bitrate= 535.7kbits/s    frame=  202 fps= 13 q=10.3 size=    2141kB time=33.54 bitrate= 522.9kbits/s    frame=  210 fps= 13 q=10.1 size=    2207kB time=34.88 bitrate= 518.5kbits/s    frame=  218 fps= 13 q=9.3 size=    2280kB time=36.21 bitrate= 515.9kbits/s    frame=  226 fps= 13 q=8.4 size=    2311kB time=37.54 bitrate= 504.4kbits/s    frame=  233 fps= 13 q=8.5 size=    2380kB time=38.71 bitrate= 503.7kbits/s    frame=  239 fps= 13 q=8.0 size=    2407kB time=39.71 bitrate= 496.6kbits/s    frame=  240 fps= 13 q=8.0 Lsize=    2412kB time=39.88 bitrate= 495.6kbits/s    video:2408kB audio:0kB global headers:0kB muxing overhead 0.164230%